<mxfile host="app.diagrams.net" agent="Mozilla/5.0 (Windows NT 10.0; Win64; x64) AppleWebKit/537.36 (KHTML, like Gecko) Chrome/132.0.0.0 Safari/537.36" version="26.0.14" pages="3">
  <diagram id="1HoIOUCxi21ZEqA61q5m" name="Страница — 1">
    <mxGraphModel dx="2751" dy="1526" grid="0" gridSize="10" guides="1" tooltips="1" connect="1" arrows="1" fold="1" page="0" pageScale="1" pageWidth="827" pageHeight="1169" math="0" shadow="0">
      <root>
        <mxCell id="0" />
        <mxCell id="1" parent="0" />
        <mxCell id="IxJNnjr6JHA0ogDTUZmP-7" style="edgeStyle=orthogonalEdgeStyle;rounded=1;orthogonalLoop=1;jettySize=auto;html=1;exitX=0.5;exitY=1;exitDx=0;exitDy=0;fontSize=12;startSize=8;endSize=8;entryX=0.5;entryY=0;entryDx=0;entryDy=0;endArrow=none;startFill=0;labelBackgroundColor=none;fontColor=default;" edge="1" parent="1" source="IxJNnjr6JHA0ogDTUZmP-2" target="IxJNnjr6JHA0ogDTUZmP-6">
          <mxGeometry relative="1" as="geometry">
            <mxPoint x="217" y="-190" as="targetPoint" />
          </mxGeometry>
        </mxCell>
        <mxCell id="IxJNnjr6JHA0ogDTUZmP-9" style="edgeStyle=orthogonalEdgeStyle;rounded=1;orthogonalLoop=1;jettySize=auto;html=1;exitX=0.5;exitY=1;exitDx=0;exitDy=0;entryX=0.5;entryY=0;entryDx=0;entryDy=0;fontSize=12;startSize=8;endSize=8;endArrow=none;startFill=0;labelBackgroundColor=none;fontColor=default;" edge="1" parent="1" source="IxJNnjr6JHA0ogDTUZmP-2" target="IxJNnjr6JHA0ogDTUZmP-8">
          <mxGeometry relative="1" as="geometry" />
        </mxCell>
        <mxCell id="IxJNnjr6JHA0ogDTUZmP-11" style="edgeStyle=orthogonalEdgeStyle;rounded=1;orthogonalLoop=1;jettySize=auto;html=1;exitX=0.5;exitY=1;exitDx=0;exitDy=0;entryX=0.5;entryY=0;entryDx=0;entryDy=0;fontSize=12;startSize=8;endSize=8;endArrow=none;startFill=0;labelBackgroundColor=none;fontColor=default;" edge="1" parent="1" source="IxJNnjr6JHA0ogDTUZmP-2" target="IxJNnjr6JHA0ogDTUZmP-10">
          <mxGeometry relative="1" as="geometry" />
        </mxCell>
        <mxCell id="IxJNnjr6JHA0ogDTUZmP-28" style="edgeStyle=orthogonalEdgeStyle;rounded=1;orthogonalLoop=1;jettySize=auto;html=1;exitX=0.5;exitY=1;exitDx=0;exitDy=0;entryX=0.5;entryY=0;entryDx=0;entryDy=0;fontSize=12;startSize=8;endSize=8;endArrow=none;startFill=0;labelBackgroundColor=none;fontColor=default;" edge="1" parent="1" source="IxJNnjr6JHA0ogDTUZmP-2" target="IxJNnjr6JHA0ogDTUZmP-27">
          <mxGeometry relative="1" as="geometry" />
        </mxCell>
        <mxCell id="IxJNnjr6JHA0ogDTUZmP-2" value="Генеральный директор" style="rounded=1;whiteSpace=wrap;html=1;labelBackgroundColor=none;fillColor=#F2CC8F;strokeColor=#E07A5F;fontColor=#393C56;" vertex="1" parent="1">
          <mxGeometry x="144" y="-307" width="120" height="60" as="geometry" />
        </mxCell>
        <mxCell id="IxJNnjr6JHA0ogDTUZmP-15" style="edgeStyle=orthogonalEdgeStyle;rounded=1;orthogonalLoop=1;jettySize=auto;html=1;exitX=0.5;exitY=1;exitDx=0;exitDy=0;entryX=0;entryY=0.5;entryDx=0;entryDy=0;fontSize=12;startSize=8;endSize=8;endArrow=none;startFill=0;labelBackgroundColor=none;fontColor=default;" edge="1" parent="1" source="IxJNnjr6JHA0ogDTUZmP-6" target="IxJNnjr6JHA0ogDTUZmP-12">
          <mxGeometry relative="1" as="geometry" />
        </mxCell>
        <mxCell id="IxJNnjr6JHA0ogDTUZmP-17" style="edgeStyle=orthogonalEdgeStyle;rounded=1;orthogonalLoop=1;jettySize=auto;html=1;exitX=0.5;exitY=1;exitDx=0;exitDy=0;entryX=0;entryY=0.5;entryDx=0;entryDy=0;fontSize=12;startSize=8;endSize=8;endArrow=none;startFill=0;labelBackgroundColor=none;fontColor=default;" edge="1" parent="1" source="IxJNnjr6JHA0ogDTUZmP-6" target="IxJNnjr6JHA0ogDTUZmP-13">
          <mxGeometry relative="1" as="geometry" />
        </mxCell>
        <mxCell id="IxJNnjr6JHA0ogDTUZmP-18" style="edgeStyle=orthogonalEdgeStyle;rounded=1;orthogonalLoop=1;jettySize=auto;html=1;exitX=0.5;exitY=1;exitDx=0;exitDy=0;entryX=0;entryY=0.5;entryDx=0;entryDy=0;fontSize=12;startSize=8;endSize=8;endArrow=none;startFill=0;labelBackgroundColor=none;fontColor=default;" edge="1" parent="1" source="IxJNnjr6JHA0ogDTUZmP-6" target="IxJNnjr6JHA0ogDTUZmP-14">
          <mxGeometry relative="1" as="geometry" />
        </mxCell>
        <mxCell id="IxJNnjr6JHA0ogDTUZmP-6" value="Отдел администрации" style="rounded=1;whiteSpace=wrap;html=1;labelBackgroundColor=none;fillColor=#F2CC8F;strokeColor=#E07A5F;fontColor=#393C56;" vertex="1" parent="1">
          <mxGeometry x="-161" y="-203" width="120" height="60" as="geometry" />
        </mxCell>
        <mxCell id="IxJNnjr6JHA0ogDTUZmP-20" style="edgeStyle=orthogonalEdgeStyle;rounded=1;orthogonalLoop=1;jettySize=auto;html=1;exitX=0.5;exitY=1;exitDx=0;exitDy=0;entryX=0;entryY=0.5;entryDx=0;entryDy=0;fontSize=12;startSize=8;endSize=8;endArrow=none;startFill=0;labelBackgroundColor=none;fontColor=default;" edge="1" parent="1" source="IxJNnjr6JHA0ogDTUZmP-8" target="IxJNnjr6JHA0ogDTUZmP-19">
          <mxGeometry relative="1" as="geometry" />
        </mxCell>
        <mxCell id="IxJNnjr6JHA0ogDTUZmP-22" style="edgeStyle=orthogonalEdgeStyle;rounded=1;orthogonalLoop=1;jettySize=auto;html=1;exitX=0.5;exitY=1;exitDx=0;exitDy=0;entryX=0;entryY=0.5;entryDx=0;entryDy=0;fontSize=12;startSize=8;endSize=8;endArrow=none;startFill=0;labelBackgroundColor=none;fontColor=default;" edge="1" parent="1" source="IxJNnjr6JHA0ogDTUZmP-8" target="IxJNnjr6JHA0ogDTUZmP-21">
          <mxGeometry relative="1" as="geometry" />
        </mxCell>
        <mxCell id="IxJNnjr6JHA0ogDTUZmP-8" value="Отдел хранения" style="rounded=1;whiteSpace=wrap;html=1;labelBackgroundColor=none;fillColor=#F2CC8F;strokeColor=#E07A5F;fontColor=#393C56;" vertex="1" parent="1">
          <mxGeometry x="43" y="-203" width="120" height="60" as="geometry" />
        </mxCell>
        <mxCell id="IxJNnjr6JHA0ogDTUZmP-24" style="edgeStyle=orthogonalEdgeStyle;rounded=1;orthogonalLoop=1;jettySize=auto;html=1;exitX=0.5;exitY=1;exitDx=0;exitDy=0;entryX=0;entryY=0.5;entryDx=0;entryDy=0;fontSize=12;startSize=8;endSize=8;endArrow=none;startFill=0;labelBackgroundColor=none;fontColor=default;" edge="1" parent="1" source="IxJNnjr6JHA0ogDTUZmP-10" target="IxJNnjr6JHA0ogDTUZmP-23">
          <mxGeometry relative="1" as="geometry" />
        </mxCell>
        <mxCell id="IxJNnjr6JHA0ogDTUZmP-10" value="Отдел обслуживания зала" style="rounded=1;whiteSpace=wrap;html=1;labelBackgroundColor=none;fillColor=#F2CC8F;strokeColor=#E07A5F;fontColor=#393C56;" vertex="1" parent="1">
          <mxGeometry x="247" y="-203" width="120" height="60" as="geometry" />
        </mxCell>
        <mxCell id="IxJNnjr6JHA0ogDTUZmP-12" value="Администрация" style="rounded=1;whiteSpace=wrap;html=1;labelBackgroundColor=none;fillColor=#F2CC8F;strokeColor=#E07A5F;fontColor=#393C56;" vertex="1" parent="1">
          <mxGeometry x="-77" y="-117" width="120" height="60" as="geometry" />
        </mxCell>
        <mxCell id="IxJNnjr6JHA0ogDTUZmP-13" value="Бухгалтер" style="rounded=1;whiteSpace=wrap;html=1;labelBackgroundColor=none;fillColor=#F2CC8F;strokeColor=#E07A5F;fontColor=#393C56;" vertex="1" parent="1">
          <mxGeometry x="-77" y="-40" width="120" height="60" as="geometry" />
        </mxCell>
        <mxCell id="IxJNnjr6JHA0ogDTUZmP-14" value="Менеджер по продажам" style="rounded=1;whiteSpace=wrap;html=1;labelBackgroundColor=none;fillColor=#F2CC8F;strokeColor=#E07A5F;fontColor=#393C56;" vertex="1" parent="1">
          <mxGeometry x="-77" y="37" width="120" height="60" as="geometry" />
        </mxCell>
        <mxCell id="IxJNnjr6JHA0ogDTUZmP-19" value="Кладовщик" style="rounded=1;whiteSpace=wrap;html=1;labelBackgroundColor=none;fillColor=#F2CC8F;strokeColor=#E07A5F;fontColor=#393C56;" vertex="1" parent="1">
          <mxGeometry x="127" y="-117" width="120" height="60" as="geometry" />
        </mxCell>
        <mxCell id="IxJNnjr6JHA0ogDTUZmP-21" value="Менеджер склада" style="rounded=1;whiteSpace=wrap;html=1;labelBackgroundColor=none;fillColor=#F2CC8F;strokeColor=#E07A5F;fontColor=#393C56;" vertex="1" parent="1">
          <mxGeometry x="127" y="-40" width="120" height="60" as="geometry" />
        </mxCell>
        <mxCell id="IxJNnjr6JHA0ogDTUZmP-23" value="Кассир" style="rounded=1;whiteSpace=wrap;html=1;labelBackgroundColor=none;fillColor=#F2CC8F;strokeColor=#E07A5F;fontColor=#393C56;" vertex="1" parent="1">
          <mxGeometry x="331" y="-117" width="120" height="60" as="geometry" />
        </mxCell>
        <mxCell id="IxJNnjr6JHA0ogDTUZmP-30" style="edgeStyle=orthogonalEdgeStyle;rounded=1;orthogonalLoop=1;jettySize=auto;html=1;exitX=0.5;exitY=1;exitDx=0;exitDy=0;entryX=0;entryY=0.5;entryDx=0;entryDy=0;fontSize=12;startSize=8;endSize=8;endArrow=none;startFill=0;labelBackgroundColor=none;fontColor=default;" edge="1" parent="1" source="IxJNnjr6JHA0ogDTUZmP-27" target="IxJNnjr6JHA0ogDTUZmP-29">
          <mxGeometry relative="1" as="geometry" />
        </mxCell>
        <mxCell id="IxJNnjr6JHA0ogDTUZmP-27" value="Отдел доставки" style="rounded=1;whiteSpace=wrap;html=1;labelBackgroundColor=none;fillColor=#F2CC8F;strokeColor=#E07A5F;fontColor=#393C56;" vertex="1" parent="1">
          <mxGeometry x="451" y="-203" width="120" height="60" as="geometry" />
        </mxCell>
        <mxCell id="IxJNnjr6JHA0ogDTUZmP-29" value="Курьер" style="rounded=1;whiteSpace=wrap;html=1;labelBackgroundColor=none;fillColor=#F2CC8F;strokeColor=#E07A5F;fontColor=#393C56;" vertex="1" parent="1">
          <mxGeometry x="535" y="-117" width="120" height="60" as="geometry" />
        </mxCell>
      </root>
    </mxGraphModel>
  </diagram>
  <diagram id="phW1F3gK0-wmTm7VIxfM" name="Страница — 2">
    <mxGraphModel dx="1773" dy="1521" grid="0" gridSize="10" guides="1" tooltips="1" connect="1" arrows="1" fold="1" page="0" pageScale="1" pageWidth="827" pageHeight="1169" math="0" shadow="0">
      <root>
        <mxCell id="0" />
        <mxCell id="1" parent="0" />
        <mxCell id="oow_wD9q1xV2908zhGN--1" value="Увольнение сотрудника" style="rounded=0;whiteSpace=wrap;html=1;textDirection=vertical-rl;rotation=-180;" vertex="1" parent="1">
          <mxGeometry x="-629" y="-54" width="20" height="272" as="geometry" />
        </mxCell>
        <mxCell id="oow_wD9q1xV2908zhGN--2" value="" style="rounded=0;whiteSpace=wrap;html=1;" vertex="1" parent="1">
          <mxGeometry x="-609" y="-54" width="760" height="160" as="geometry" />
        </mxCell>
        <mxCell id="oow_wD9q1xV2908zhGN--3" value="" style="rounded=0;whiteSpace=wrap;html=1;" vertex="1" parent="1">
          <mxGeometry x="-609" y="106" width="760" height="112" as="geometry" />
        </mxCell>
        <mxCell id="oow_wD9q1xV2908zhGN--4" value="Менеджер" style="text;html=1;align=center;verticalAlign=middle;resizable=0;points=[];autosize=1;strokeColor=none;fillColor=none;rotation=-90;" vertex="1" parent="1">
          <mxGeometry x="-632" y="7" width="76" height="26" as="geometry" />
        </mxCell>
        <mxCell id="oow_wD9q1xV2908zhGN--5" value="Сотрудник" style="text;html=1;align=center;verticalAlign=middle;resizable=0;points=[];autosize=1;strokeColor=none;fillColor=none;rotation=-90;" vertex="1" parent="1">
          <mxGeometry x="-632" y="149" width="76" height="26" as="geometry" />
        </mxCell>
        <mxCell id="oow_wD9q1xV2908zhGN--10" style="edgeStyle=orthogonalEdgeStyle;rounded=0;orthogonalLoop=1;jettySize=auto;html=1;exitX=1;exitY=0.5;exitDx=0;exitDy=0;entryX=0;entryY=0.5;entryDx=0;entryDy=0;" edge="1" parent="1" source="oow_wD9q1xV2908zhGN--6" target="oow_wD9q1xV2908zhGN--9">
          <mxGeometry relative="1" as="geometry" />
        </mxCell>
        <mxCell id="oow_wD9q1xV2908zhGN--6" value="" style="ellipse;whiteSpace=wrap;html=1;aspect=fixed;" vertex="1" parent="1">
          <mxGeometry x="-572" y="5" width="40" height="40" as="geometry" />
        </mxCell>
        <mxCell id="oow_wD9q1xV2908zhGN--7" value="Начало" style="text;html=1;align=center;verticalAlign=middle;resizable=0;points=[];autosize=1;strokeColor=none;fillColor=none;" vertex="1" parent="1">
          <mxGeometry x="-582" y="39" width="60" height="26" as="geometry" />
        </mxCell>
        <mxCell id="oow_wD9q1xV2908zhGN--8" value="" style="shape=message;html=1;html=1;outlineConnect=0;labelPosition=center;verticalLabelPosition=bottom;align=center;verticalAlign=top;" vertex="1" parent="1">
          <mxGeometry x="-564" y="17" width="24" height="16" as="geometry" />
        </mxCell>
        <mxCell id="oow_wD9q1xV2908zhGN--14" style="edgeStyle=orthogonalEdgeStyle;rounded=0;orthogonalLoop=1;jettySize=auto;html=1;exitX=1;exitY=0.5;exitDx=0;exitDy=0;entryX=0;entryY=0.5;entryDx=0;entryDy=0;" edge="1" parent="1" source="oow_wD9q1xV2908zhGN--9" target="oow_wD9q1xV2908zhGN--13">
          <mxGeometry relative="1" as="geometry" />
        </mxCell>
        <mxCell id="oow_wD9q1xV2908zhGN--9" value="Зафиксировать причину увольнения" style="rounded=0;whiteSpace=wrap;html=1;" vertex="1" parent="1">
          <mxGeometry x="-497" y="5" width="120" height="40" as="geometry" />
        </mxCell>
        <mxCell id="oow_wD9q1xV2908zhGN--19" style="edgeStyle=orthogonalEdgeStyle;rounded=0;orthogonalLoop=1;jettySize=auto;html=1;exitX=0.5;exitY=1;exitDx=0;exitDy=0;entryX=0;entryY=0.5;entryDx=0;entryDy=0;" edge="1" parent="1" source="oow_wD9q1xV2908zhGN--13" target="oow_wD9q1xV2908zhGN--18">
          <mxGeometry relative="1" as="geometry" />
        </mxCell>
        <mxCell id="oow_wD9q1xV2908zhGN--20" value="Да" style="edgeLabel;html=1;align=center;verticalAlign=middle;resizable=0;points=[];" vertex="1" connectable="0" parent="oow_wD9q1xV2908zhGN--19">
          <mxGeometry x="0.102" relative="1" as="geometry">
            <mxPoint x="6" y="-10" as="offset" />
          </mxGeometry>
        </mxCell>
        <mxCell id="oow_wD9q1xV2908zhGN--23" style="edgeStyle=orthogonalEdgeStyle;rounded=0;orthogonalLoop=1;jettySize=auto;html=1;exitX=1;exitY=0.5;exitDx=0;exitDy=0;entryX=0;entryY=0.5;entryDx=0;entryDy=0;" edge="1" parent="1" source="oow_wD9q1xV2908zhGN--13" target="oow_wD9q1xV2908zhGN--21">
          <mxGeometry relative="1" as="geometry" />
        </mxCell>
        <mxCell id="oow_wD9q1xV2908zhGN--25" value="Нет" style="edgeLabel;html=1;align=center;verticalAlign=middle;resizable=0;points=[];" vertex="1" connectable="0" parent="oow_wD9q1xV2908zhGN--23">
          <mxGeometry x="-0.8192" relative="1" as="geometry">
            <mxPoint x="3" y="-10" as="offset" />
          </mxGeometry>
        </mxCell>
        <mxCell id="oow_wD9q1xV2908zhGN--13" value="" style="rhombus;whiteSpace=wrap;html=1;" vertex="1" parent="1">
          <mxGeometry x="-334" y="5" width="40" height="40" as="geometry" />
        </mxCell>
        <mxCell id="oow_wD9q1xV2908zhGN--15" value="" style="verticalLabelPosition=bottom;verticalAlign=top;html=1;shape=mxgraph.basic.x" vertex="1" parent="1">
          <mxGeometry x="-322.5" y="16.5" width="17" height="17" as="geometry" />
        </mxCell>
        <mxCell id="oow_wD9q1xV2908zhGN--16" value="Требуется ли&lt;div&gt;расследование?&lt;/div&gt;" style="text;html=1;align=center;verticalAlign=middle;resizable=0;points=[];autosize=1;strokeColor=none;fillColor=none;" vertex="1" parent="1">
          <mxGeometry x="-369" y="-36" width="110" height="41" as="geometry" />
        </mxCell>
        <mxCell id="oow_wD9q1xV2908zhGN--24" style="edgeStyle=orthogonalEdgeStyle;rounded=0;orthogonalLoop=1;jettySize=auto;html=1;exitX=1;exitY=0.5;exitDx=0;exitDy=0;entryX=0.5;entryY=1;entryDx=0;entryDy=0;" edge="1" parent="1" source="oow_wD9q1xV2908zhGN--18" target="oow_wD9q1xV2908zhGN--21">
          <mxGeometry relative="1" as="geometry" />
        </mxCell>
        <mxCell id="oow_wD9q1xV2908zhGN--18" value="Провести анализ нарушений" style="rounded=0;whiteSpace=wrap;html=1;" vertex="1" parent="1">
          <mxGeometry x="-278" y="55" width="105" height="40" as="geometry" />
        </mxCell>
        <mxCell id="oow_wD9q1xV2908zhGN--27" style="edgeStyle=orthogonalEdgeStyle;rounded=0;orthogonalLoop=1;jettySize=auto;html=1;exitX=1;exitY=0.5;exitDx=0;exitDy=0;entryX=0;entryY=0.5;entryDx=0;entryDy=0;" edge="1" parent="1" source="oow_wD9q1xV2908zhGN--21" target="oow_wD9q1xV2908zhGN--26">
          <mxGeometry relative="1" as="geometry" />
        </mxCell>
        <mxCell id="oow_wD9q1xV2908zhGN--21" value="" style="rhombus;whiteSpace=wrap;html=1;" vertex="1" parent="1">
          <mxGeometry x="-159" y="5" width="40" height="40" as="geometry" />
        </mxCell>
        <mxCell id="oow_wD9q1xV2908zhGN--22" value="" style="verticalLabelPosition=bottom;verticalAlign=top;html=1;shape=mxgraph.basic.x" vertex="1" parent="1">
          <mxGeometry x="-147.5" y="16.5" width="17" height="17" as="geometry" />
        </mxCell>
        <mxCell id="oow_wD9q1xV2908zhGN--29" style="edgeStyle=orthogonalEdgeStyle;rounded=0;orthogonalLoop=1;jettySize=auto;html=1;exitX=1;exitY=0.5;exitDx=0;exitDy=0;entryX=0;entryY=0.5;entryDx=0;entryDy=0;" edge="1" parent="1" source="oow_wD9q1xV2908zhGN--26" target="oow_wD9q1xV2908zhGN--28">
          <mxGeometry relative="1" as="geometry" />
        </mxCell>
        <mxCell id="oow_wD9q1xV2908zhGN--26" value="Подготовить заявление, приказ, расчёт компенсаций" style="rounded=0;whiteSpace=wrap;html=1;" vertex="1" parent="1">
          <mxGeometry x="-88" width="130" height="50" as="geometry" />
        </mxCell>
        <mxCell id="oow_wD9q1xV2908zhGN--28" value="" style="ellipse;whiteSpace=wrap;html=1;aspect=fixed;" vertex="1" parent="1">
          <mxGeometry x="94" y="5" width="40" height="40" as="geometry" />
        </mxCell>
        <mxCell id="oow_wD9q1xV2908zhGN--32" value="" style="html=1;shadow=0;dashed=0;align=center;verticalAlign=middle;shape=mxgraph.arrows2.arrow;dy=0.68;dx=13.67;notch=0;" vertex="1" parent="1">
          <mxGeometry x="100.5" y="16.5" width="27" height="19" as="geometry" />
        </mxCell>
        <mxCell id="oow_wD9q1xV2908zhGN--33" value="Ссылка А" style="text;html=1;align=center;verticalAlign=middle;resizable=0;points=[];autosize=1;strokeColor=none;fillColor=none;" vertex="1" parent="1">
          <mxGeometry x="78" y="45" width="72" height="26" as="geometry" />
        </mxCell>
      </root>
    </mxGraphModel>
  </diagram>
  <diagram id="U3eNZOmVSBgYbh-Rnpcx" name="Страница — 3">
    <mxGraphModel dx="1395" dy="1823" grid="1" gridSize="10" guides="1" tooltips="1" connect="1" arrows="1" fold="1" page="1" pageScale="1" pageWidth="827" pageHeight="1169" math="0" shadow="0">
      <root>
        <mxCell id="0" />
        <mxCell id="1" parent="0" />
        <mxCell id="KPNvX3h0XDNMsFPS_ZH9-1" value="Увольнение сотрудника" style="rounded=0;whiteSpace=wrap;html=1;textDirection=vertical-rl;rotation=-180;" vertex="1" parent="1">
          <mxGeometry x="-629" y="-54" width="20" height="272" as="geometry" />
        </mxCell>
        <mxCell id="KPNvX3h0XDNMsFPS_ZH9-2" value="" style="rounded=0;whiteSpace=wrap;html=1;" vertex="1" parent="1">
          <mxGeometry x="-609" y="-54" width="760" height="160" as="geometry" />
        </mxCell>
        <mxCell id="KPNvX3h0XDNMsFPS_ZH9-3" value="" style="rounded=0;whiteSpace=wrap;html=1;" vertex="1" parent="1">
          <mxGeometry x="-609" y="106" width="760" height="112" as="geometry" />
        </mxCell>
        <mxCell id="KPNvX3h0XDNMsFPS_ZH9-4" value="Менеджер" style="text;html=1;align=center;verticalAlign=middle;resizable=0;points=[];autosize=1;strokeColor=none;fillColor=none;rotation=-90;" vertex="1" parent="1">
          <mxGeometry x="-632" y="7" width="76" height="26" as="geometry" />
        </mxCell>
        <mxCell id="KPNvX3h0XDNMsFPS_ZH9-5" value="Сотрудник" style="text;html=1;align=center;verticalAlign=middle;resizable=0;points=[];autosize=1;strokeColor=none;fillColor=none;rotation=-90;" vertex="1" parent="1">
          <mxGeometry x="-632" y="149" width="76" height="26" as="geometry" />
        </mxCell>
        <mxCell id="gzQG-hf55PFNNj5DTH1V-2" style="edgeStyle=orthogonalEdgeStyle;rounded=0;orthogonalLoop=1;jettySize=auto;html=1;exitX=1;exitY=0.5;exitDx=0;exitDy=0;entryX=0;entryY=0.5;entryDx=0;entryDy=0;" edge="1" parent="1" source="KPNvX3h0XDNMsFPS_ZH9-26" target="gzQG-hf55PFNNj5DTH1V-1">
          <mxGeometry relative="1" as="geometry" />
        </mxCell>
        <mxCell id="KPNvX3h0XDNMsFPS_ZH9-26" value="" style="ellipse;whiteSpace=wrap;html=1;aspect=fixed;" vertex="1" parent="1">
          <mxGeometry x="-564" y="-7" width="40" height="40" as="geometry" />
        </mxCell>
        <mxCell id="KPNvX3h0XDNMsFPS_ZH9-27" value="" style="html=1;shadow=0;dashed=0;align=center;verticalAlign=middle;shape=mxgraph.arrows2.arrow;dy=0.68;dx=13.67;notch=0;" vertex="1" parent="1">
          <mxGeometry x="-557.5" y="4.5" width="27" height="19" as="geometry" />
        </mxCell>
        <mxCell id="KPNvX3h0XDNMsFPS_ZH9-28" value="Ссылка А" style="text;html=1;align=center;verticalAlign=middle;resizable=0;points=[];autosize=1;strokeColor=none;fillColor=none;" vertex="1" parent="1">
          <mxGeometry x="-580" y="33" width="72" height="26" as="geometry" />
        </mxCell>
        <mxCell id="gzQG-hf55PFNNj5DTH1V-4" style="edgeStyle=orthogonalEdgeStyle;rounded=0;orthogonalLoop=1;jettySize=auto;html=1;exitX=1;exitY=0.5;exitDx=0;exitDy=0;entryX=0;entryY=0.5;entryDx=0;entryDy=0;" edge="1" parent="1" source="gzQG-hf55PFNNj5DTH1V-1" target="gzQG-hf55PFNNj5DTH1V-3">
          <mxGeometry relative="1" as="geometry" />
        </mxCell>
        <mxCell id="gzQG-hf55PFNNj5DTH1V-1" value="Подписать заявление и приказ" style="rounded=0;whiteSpace=wrap;html=1;" vertex="1" parent="1">
          <mxGeometry x="-484" y="138" width="65" height="48" as="geometry" />
        </mxCell>
        <mxCell id="gzQG-hf55PFNNj5DTH1V-6" style="edgeStyle=orthogonalEdgeStyle;rounded=0;orthogonalLoop=1;jettySize=auto;html=1;exitX=1;exitY=0.5;exitDx=0;exitDy=0;entryX=0;entryY=0.5;entryDx=0;entryDy=0;" edge="1" parent="1" source="gzQG-hf55PFNNj5DTH1V-3" target="gzQG-hf55PFNNj5DTH1V-5">
          <mxGeometry relative="1" as="geometry" />
        </mxCell>
        <mxCell id="gzQG-hf55PFNNj5DTH1V-3" value="Сдать рабочий инвентарь" style="rounded=0;whiteSpace=wrap;html=1;" vertex="1" parent="1">
          <mxGeometry x="-390" y="138" width="65" height="48" as="geometry" />
        </mxCell>
        <mxCell id="gzQG-hf55PFNNj5DTH1V-8" style="edgeStyle=orthogonalEdgeStyle;rounded=0;orthogonalLoop=1;jettySize=auto;html=1;exitX=1;exitY=0.5;exitDx=0;exitDy=0;entryX=0;entryY=0.5;entryDx=0;entryDy=0;" edge="1" parent="1" source="gzQG-hf55PFNNj5DTH1V-5" target="gzQG-hf55PFNNj5DTH1V-7">
          <mxGeometry relative="1" as="geometry" />
        </mxCell>
        <mxCell id="gzQG-hf55PFNNj5DTH1V-5" value="Провести финальное собеседование" style="rounded=0;whiteSpace=wrap;html=1;" vertex="1" parent="1">
          <mxGeometry x="-280" y="-10" width="90" height="48" as="geometry" />
        </mxCell>
        <mxCell id="gzQG-hf55PFNNj5DTH1V-10" style="edgeStyle=orthogonalEdgeStyle;rounded=0;orthogonalLoop=1;jettySize=auto;html=1;exitX=1;exitY=0.5;exitDx=0;exitDy=0;entryX=0;entryY=0.5;entryDx=0;entryDy=0;" edge="1" parent="1" source="gzQG-hf55PFNNj5DTH1V-7" target="gzQG-hf55PFNNj5DTH1V-9">
          <mxGeometry relative="1" as="geometry" />
        </mxCell>
        <mxCell id="gzQG-hf55PFNNj5DTH1V-7" value="Выплатить расчёт и закрыть доступ к системам" style="rounded=0;whiteSpace=wrap;html=1;" vertex="1" parent="1">
          <mxGeometry x="-164" y="-11" width="110" height="48" as="geometry" />
        </mxCell>
        <mxCell id="gzQG-hf55PFNNj5DTH1V-12" style="edgeStyle=orthogonalEdgeStyle;rounded=0;orthogonalLoop=1;jettySize=auto;html=1;exitX=1;exitY=0.5;exitDx=0;exitDy=0;entryX=0;entryY=0.5;entryDx=0;entryDy=0;" edge="1" parent="1" source="gzQG-hf55PFNNj5DTH1V-9" target="gzQG-hf55PFNNj5DTH1V-11">
          <mxGeometry relative="1" as="geometry" />
        </mxCell>
        <mxCell id="gzQG-hf55PFNNj5DTH1V-9" value="Завершение процесса увольнения" style="rounded=0;whiteSpace=wrap;html=1;" vertex="1" parent="1">
          <mxGeometry x="-30" y="-11" width="80" height="48" as="geometry" />
        </mxCell>
        <mxCell id="gzQG-hf55PFNNj5DTH1V-11" value="" style="ellipse;whiteSpace=wrap;html=1;aspect=fixed;" vertex="1" parent="1">
          <mxGeometry x="80" y="-7" width="40" height="40" as="geometry" />
        </mxCell>
        <mxCell id="RSWrAprMVFHYoY2Crko5-1" value="Конец" style="shape=umlActor;verticalLabelPosition=bottom;verticalAlign=top;html=1;outlineConnect=0;" vertex="1" parent="1">
          <mxGeometry x="92.5" y="-2" width="15" height="30" as="geometry" />
        </mxCell>
      </root>
    </mxGraphModel>
  </diagram>
</mxfile>
